<svg version="1.2" xmlns="http://www.w3.org/2000/svg" viewBox="0 0 60 63" width="60" height="63">
	<title>logo-svg</title>
	<style>
		.s0 { fill: #ffffff;stroke: #000000;stroke-width: .1 } 
	</style>
	<g id="Layer">
		<path id="Layer" fill-rule="evenodd" class="s0" d="m67.4 72.5c-3.1-3.6 5.2-2.9 1.4 0.2-0.3 0.3-1 0.2-1.4-0.2zm-5.7-0.9c-2.8-3.2 3.9-4.3 2.5-0.4-0.3 0.9-1.8 1.1-2.5 0.4zm-43-1c-3.7-2.1 2.9-4.4 1.8-1-0.3 0.7-1.1 1.4-1.8 1zm-6.3-1.8c-3.1-2.7 3.3-4.5 2.4-0.6-0.3 0.9-1.9 1.1-2.4 0.6zm53.2-0.8c-3.8-2.9 4.2-4.3 2-0.2-0.3 0.7-1.5 0.6-2 0.2zm-48.8-2.6c-3.8-3 4-4.6 2.1-0.5-0.3 0.6-1.4 1-2.1 0.5zm37.6 0.2c-3.6-1.7-3.7-6.4-5.1-9.6-0.6-3.3-3.3-6-5.2-8.2 3.5-0.2 6.6 2.1 9.4 3.8 3.6 2.3 7.6 6.2 6.4 10.8-0.6 2.3-3.4 3.5-5.5 3.2zm-10.2-0.9c-3.5-2.5-2.5-7.4-3.3-11.1 0.2-1.7-3.9-7-0.1-5 4.4 2.7 7.7 7.7 7.3 13-0.3 1.6-2.2 4.2-3.9 3.1zm-43.5-3.7c-2.1-3.3 1.5-6.6 2.9-9.4 1.7-3.1 1.9-6.6 1.4-10-0.7-3.7-0.3-7.6 2-10.7 1.6-2.1 4.6-3 6.4-3.3-0.4-2.5-3.3-5.2-2.9-8.9-1.7-1.4-2.2-2.6-2.1-3 0-0.3 2.5-0.5 4.6-2.5 1.4-1.3 3.8-1.1 5.4-0.7 2 0.4 3.7 2.9 4.7 4.3 2.9 3.9 2.1-4.7 5.5-5.3 5.5-1 11.4 0 16.4-2.9 2.4-1.4 4.2-3.9 5.3-6.5 1.5-3.5 6.2-2.1 4.4 1.5-1.2 2.1-0.2 2.8 1.1 3.6-0.8 1.9-5.2 3.5-2 5.3 0 1.6-4.4 2.4-1.8 4.6-0.9 2.2-6.3 1-4.3 4.2-1.3 1.6-6.6 0.6-3.2 3.2 1.9 3.2-7.3 0.9-3.3 4.2-2 2-6.3 0.4-8.5 1.8-0.3 3.9 2.3 7.2 4.9 9.7 1.1 1.1 4.6 3 3.8 4.4-3.3 0-6.5-0.7-9.5-1.9-2.6-1.6-5.5-3-5.8 1.2-2.6-1.5-2.1 4.3-4.1 5.7-1 2.8-2.9-4.4-3.3-0.1 0 2.1-0.9 4.1-2.9 3-0.7 2.5-1.6 7.1-4.3 3.6-1.1 1.3-2.4 6.1-4 2.6-1.6-2.5-4.2 4.8-6.8 2.3zm34.2 1.7c-3.5-2.3-1.8-6.8-1.3-10.2 1.2-2.1-0.5-5.9 0.3-7.2 2.9 1.7 3.9 5.3 5.3 8.2 0.8 3.1 1.6 8.1-2.4 9.3-0.6 0.1-1.4 0.4-1.9-0.1zm-7.8-5.7c-3.2-2.9 0.4-7.2 1.6-10.3 0.7-1.2 0.8-5.3 1.9-2.2 1.5 3.3 2.4 7.6 0.5 10.9-0.8 1.2-2.5 3-4 1.6zm26.8-7.5c-2.8-1.6-6.5-3-8-5.8 3 0.3 6.3 0.6 9.1-1.1 3-1.9 7.9 1.8 5.3 5-1.5 1.8-4.2 2.3-6.4 1.9zm-5.9-7.2c-2-0.6-6.9-2.1-6.8-3.6 3.5-0.7 7.3-1 10.1-3.5 3.3-4 8.5 1.5 4.3 4.6-2 1.8-4.9 2.8-7.6 2.5zm-6.2-6.3c-1.6-0.3-7.2-1.7-5.4-3.4 3.4-0.6 7.4-1 9.3-4.4 2.2-4.4 8.5 0.7 4.9 3.7-2.3 2.5-5.3 4.6-8.8 4.1zm12.6-11.9c-2.8-3.8 5.1-4.4 2.5-0.3-0.5 0.8-1.9 1.1-2.5 0.3zm6.3-0.6c-3-1.8 0.9-5.6 2.1-1.9 0.4 1.4-0.7 2.8-2.1 1.9zm-2.5-6c-3.1-3.2 4.3-4.1 2.2-0.3-0.4 0.7-1.6 0.9-2.2 0.3z"/>
	</g>
</svg>