<svg version="1.2" xmlns="http://www.w3.org/2000/svg" viewBox="0 0 142 150" width="142" height="150"><defs><linearGradient id="P" gradientUnits="userSpaceOnUse"/><linearGradient id="g1" x1="32.3" y1="24.9" x2="34129.1" y2="92.5" href="#P"><stop stop-color="#fff"/><stop offset="1"/></linearGradient><linearGradient id="g2" x1="105.6" y1="49.5" x2="13347.9" y2="128.3" href="#P"><stop stop-color="#fff"/><stop offset="1"/></linearGradient><linearGradient id="g3" x1="37.9" y1="107.3" x2="58423.3" y2="149.5" href="#P"><stop stop-color="#fff"/><stop offset="1"/></linearGradient></defs><style>.a{fill:url(#g1);stroke:#722323;stroke-linejoin:round;stroke-width:.8}.b{fill:url(#g2);stroke:#7c1d1d;stroke-linejoin:round;stroke-width:.8}.c{fill:url(#g3);stroke:#7a2929;stroke-linejoin:round;stroke-width:.8}</style><path fill-rule="evenodd" class="a" d="m30.2 87.7c-2.4-20.7 10.4-45 41.5-46.3l-1.7 17.8c7.2-5.8 17.3-21.4 19.8-29.8-1.8-8.3-11.7-21.8-19.4-28.8l1.3 15.2c-50.5 0.7-72.7 45.3-67.2 76.6l11.1-9.4c0 0 14.6 4.7 14.6 4.7z"/><path fill-rule="evenodd" class="b" d="m87.8 45.6c18.9 8.7 33.1 32.3 18.1 59.4l-14.4-10.7c1.3 9.2 9.3 26 15.2 32.4 8 2.7 24.7 1.4 34.8-1.6l-13.7-6.8c25.6-43.4-1-85.5-30.6-97.1l2.2 14.4c0 0-11.6 10-11.6 10z"/><path fill-rule="evenodd" class="c" d="m96.1 114.9c-16.7 12.5-44.2 13.9-61.1-12l16.2-7.7c-8.7-3.2-27.3-4-35.7-1.9-6.2 5.8-12.9 21.2-15 31.4l12.4-8.9c26.4 43 76.1 39.4 100.3 18.8l-13.8-4.8c0 0-3.3-14.9-3.3-14.9z"/></svg>