<svg version="1.2" xmlns="http://www.w3.org/2000/svg" viewBox="0 0 150 150" width="150" height="150"><style>.a{fill:none}.b{fill:#fff}</style><path class="a" d="m-33.4-33.4h216.8v216.8h-216.8z"/><path fill-rule="evenodd" class="b" d="m149.5 83.6c-4.7 41.1-41.9 70.6-83 65.9-41.2-4.7-70.7-41.9-66-83 4.7-41.2 41.9-70.7 83.1-66 41.1 4.7 70.6 41.9 65.9 83.1zm-142.3-16.4c-4.3 37.5 22.6 71.3 60 75.6 37.5 4.3 71.3-22.6 75.6-60 4.3-37.4-22.6-71.3-60-75.6-37.4-4.3-71.3 22.6-75.6 60z"/><path fill-rule="evenodd" class="b" d="m116.8 31.1q0.1 0 0.2 0 0.1 0.1 0.2 0.1 0.1 0.1 0.1 0.2 0.2 0.1 0.3 0.3 0 0.2 0 0.4 0 0.2 0 0.4-0.1 0.2-0.3 0.4-0.1 0.1-0.2 0.2-0.2 0.1-0.4 0.1-0.1 0-0.3 0-0.2 0-0.3-0.1l-1.9 1.9c-1.1 3.2-6.4 19.1-12.6 26.5-6.6 7.9-19.4 18.4-25.7 26.6l-3.1 10.6c4.2-2.4 8.7-3.5 8.7-3.5 0 0-1.4 5.5-4.3 10-2.6 4-11 12.5-13 14.6l0.7 0.6-1.7 1.7-1.2-1.1c-0.4 0.2-4.9 3-7.4 4.3-1.9 1-5 1.9-5 1.9 0 0 0.9-3.2 1.8-5.1 1.3-2.5 4.1-6.9 4.4-7.4l-1.2-1.1 1.7-1.7 0.6 0.6c0.4-0.4 0.7-0.7 1.7-1.6l-1.1-5.4c-1.4-7.4-9.2-2.2-10.6-3.7-1.5-1.4 3.6-9.3-3.7-10.6l-5.4-1.1c-1 1-1.2 1.2-1.6 1.7l0.6 0.6-1.6 1.7-1.2-1.2c-0.4 0.3-4.9 3.1-7.4 4.4-1.9 0.9-5.1 1.9-5.1 1.9 0 0 0.9-3.2 1.9-5.1 1.3-2.5 4.1-7 4.4-7.4l-1.2-1.2 1.7-1.6 0.6 0.6c2.1-2 10.6-10.4 14.6-13 4.4-3 10-4.3 10-4.3 0 0-1.1 4.5-3.5 8.7l10.6-3.1c8.2-6.3 18.7-19.1 26.5-25.7 7.5-6.2 23.3-11.5 26.6-12.6l1.9-1.9q-0.1-0.1-0.1-0.3 0-0.2 0-0.3 0-0.2 0.1-0.4 0.1-0.1 0.2-0.2 0.1-0.1 0.2-0.2 0.1 0 0.2-0.1 0.1 0 0.2 0 0.1 0 0.2 0 0.1 0 0.2 0zm-25.5 20.2q-0.5 0.1-1 0.3-0.4 0.2-0.9 0.5-0.4 0.3-0.8 0.6-0.7 0.8-1.1 1.7-0.4 1-0.4 2 0 1 0.4 2 0.4 0.9 1.1 1.7 0.8 0.7 1.7 1.1 1 0.4 2 0.4 1 0 2-0.4 0.9-0.4 1.7-1.1 0.7-0.8 1.1-1.7 0.4-1 0.4-2 0-1-0.4-2-0.4-0.9-1.1-1.7-0.4-0.3-0.8-0.6-0.4-0.3-0.9-0.5-0.5-0.2-0.9-0.3-0.5-0.1-1-0.1-0.6 0-1.1 0.1zm-64.7 40.7c-0.7 1.3-1.7 3.8-1.7 3.8 0 0 2.5-1 3.8-1.7 1.5-0.8 3.6-1.9 4.2-2.3l-4-4c-0.4 0.6-1.5 2.7-2.3 4.2zm28 28c-0.7 1.3-1.7 3.8-1.7 3.8 0 0 2.5-1 3.8-1.7 1.5-0.7 3.6-1.9 4.2-2.3l-4-4c-0.3 0.7-1.5 2.7-2.3 4.2z"/></svg>