<svg version="1.2" xmlns="http://www.w3.org/2000/svg" viewBox="0 0 128 150" width="128" height="150"><style>.a{fill:#fff}</style><path class="a" d="m46.5 0l3.8 6.7c7.4 12.9 9.7 22.5 9.5 41-0.1 15.1-0.7 19-5.2 32.5-4.6 13.7-5.1 16.7-4.5 28.1l0.7 12.8-3.1-7.1c-3.6-7.9-3.9-16.5-1.9-46.4l1.3-19-4.8-9.8c-4.9-10.1-17.4-24.2-15.3-17.5 1.4 4.9-2.7 15.6-12.7 32.9-12.4 21.4-15 29.8-14.1 44.2 1 17.5 9.8 33.5 25.1 45.6 5 3.9 9.2 6 12.3 6h4.8l-6.6-7.2c-9.2-9.9-14.4-22.1-15.4-35.5-0.5-8-0.3-10.6 1.1-9.8 0.9 0.6 1.7 2.4 1.7 3.9 0 4.4 8.8 20.7 15.1 28.2 3.3 3.7 10.1 9.8 15.1 13.6 8.8 6.4 9.7 6.8 20.1 6.8 6 0 10.6-0.6 10.3-1.2-9.4-18.4-9.8-19.9-9.8-32.4 0.1-11.5 0.7-13.7 7.4-28.1 8.4-17.9 10.5-25.9 10.5-39.2 0.1-19.3-9.1-33.8-26.8-42.3-5.4-2.7-11.8-5.3-14.3-5.8 0 0-4.3-1-4.3-1zm65.1 50.8l-1.2 7c-1.7 10-3.9 14.8-12.9 28.9-4.4 6.9-8.9 14.8-10.1 17.6-3.2 8-1.4 24.3 3.9 35.1l4.5 9 1.9-6.7c1.5-5.1 4.9-9.5 14.4-18.5 13.8-13.1 15.8-17.4 15.8-33.5 0-11.8-3.1-21-10.5-31.1 0 0-5.8-7.8-5.8-7.8z"/></svg>