<svg version="1.2" xmlns="http://www.w3.org/2000/svg" viewBox="0 0 123 150" width="123" height="150"><style>.a{fill:#07727e}.b{fill:#fff}</style><path class="a" d="m-86-72.2h295v294.5h-295z"/><path class="b" d="m87.6 6.7c-6.6 1.8-21 7.8-23.7 27.4 7.2-1.5 23.1-7.2 23.7-27.4z"/><path class="b" d="m102 99.1c-4.1-5.5-6.5-12.3-6.5-19.7 0-6.5 1.9-12.6 5.2-17.7 2.7-4.3 6.5-8 10.9-10.7-1.9-2.3-5.2-5.8-10.3-8.1-8.1-3.9-20.7-5-38.4 5.7-1 0.6-2.2 0.6-3.2-0.1-0.1 0-19.9-13.7-34-4.3q-0.2 0.1-0.4 0.2c-0.1 0-30.1 14.9-15 61.8 0.8 1.9 11.3 25.9 23 34.4 0.1 0 0.2 0.1 0.3 0.2 0 0.1 6.4 6.5 15.9-0.1q0.2-0.1 0.5-0.2c0-0.1 16.1-7.3 27.3 0.3 0 0 0.1 0.1 0.2 0.1 0 0 10.2 7 16.9 0 0.1 0 0.1-0.1 0.2-0.2 0.1 0 13.8-11.6 21.6-30.4-5.7-2.5-10.6-6.3-14.2-11.2z"/><path class="b" d="m101.5 79.4c0 6.1 2 11.7 5.3 16.2 3.5 4.6 8.4 8.2 14 10 1.2 0.4 2 1.5 2.1 2.6v0.4q0.1 0.7-0.2 1.3c-7.7 20.9-22.8 34.2-24.1 35.3-10.2 10.4-24.4 0.7-24.5 0.7q-0.1-0.1-0.2-0.2c-7.7-5.2-19.3-0.7-21.2 0.1-12.3 8.4-21.7 0.8-23.1-0.5-13.4-9.8-24.8-36.7-24.9-36.8q0-0.2-0.1-0.4c-16.2-50.3 15.9-67.9 17.9-69 14.7-9.6 33.3 0.1 38.9 3.4q3.1-1.8 6-3.1c-3.9 1-6.7 1.2-6.7 1.2-1.7 0.2-3.1-1.1-3.2-2.7q0-0.3 0-0.6c2.2-34 32.6-37.2 32.7-37.2 1.6-0.2 3.1 1 3.3 2.6 0 0.1 0 0.3 0 0.4 1 19-8.6 28.4-17.7 33.1 11.9-3.6 21.2-2 28.1 1.3 9.7 4.6 14.4 12.4 14.7 13 0.8 1.4 0.4 3.2-1.1 4.1-0.1 0-0.3 0.1-0.4 0.2-4.7 2.2-8.6 5.7-11.3 10.1-2.7 4.2-4.3 9.2-4.3 14.5z"/></svg>