<svg version="1.2" xmlns="http://www.w3.org/2000/svg" viewBox="0 0 88 82" width="88" height="82"><style>.a{fill:#fff}</style><path fill-rule="evenodd" class="a" d="m76.5 25.3l9.6 15.8c0.9 1.3 1.4 2.6 1.6 3.9 0.2 1.3 0 2.6-0.4 4.2l-7 19.4c-0.6 1.7-1.8 3.4-3.3 4.6-1.6 1.2-3.4 2.2-5.3 2.2h-15.1l-0.2 6.3-1.4 0.3-9.8-16.6 9.3-17.8 1.3 0.3-0.1 6.6h15.2l-11.2-18zm7.6 28.4q-0.3 0.3-0.6 0.5c-1.5 1-3.3 1.7-5.2 1.7l-24.1 0.1 0.1-5-7.4 14.4 8.1 13.7 0.2-5.2h16.4c1.7 0 3.3-0.8 4.5-1.9 1.3-1 2.3-2.5 2.9-3.9zm-8-26.3l-14.4 9.5 10.9 17.5 5.7 0.1c1.6 0 3.1-0.6 4.3-1.5 1.1-0.8 2.1-1.9 2.7-3.1 0.8-1.4 1.1-2.8 1-4.1-0.1-1.3-0.6-2.7-1.4-4zm-34.5 48h-19.6c-1.9 0-3.6-0.4-5-1.4-1-0.5-1.8-1.3-2.4-2.2l-12.4-16.5c-1.2-1.7-1.8-3.5-1.9-5.3-0.2-2.2 0.3-4.3 1.2-5.5l8.4-12.6-5.3-3.8 0.5-1.3 19.2 1 9.8 17.6-1.1 0.9-5.4-3.7-8.4 12.7 22.4-0.1zm-29-8.7c-0.1-0.3-0.1-0.5-0.1-0.8-0.1-1.8 0.3-3.7 1.4-5.3l3.4-5h-0.1l9.9-15.1 4.2 2.9-7.8-14.2-16-0.8 4.4 3.2-9.1 13.6c-0.7 1.1-1.2 2.8-1.1 4.7 0.1 1.5 0.6 3.1 1.7 4.5zm27.6 7.3v-17.2h-21.9l-3.2 4.7c-0.6 1-1.1 3.2-1.1 4.4 0.1 1.4 0.5 2.8 1.1 4 0.6 1.2 1.6 2.3 2.7 3 1.2 0.8 2.6 1.1 4.2 1.1zm-6.3-43.7c-5.4-4-10.8-8-16.1-12.1 3.6-4.7 7.1-9.5 10.7-14.2 1-1.4 2.3-2.4 3.7-3.1 1.5-0.6 3.1-0.7 4.8-0.7h19.4c2.1 0 4 0.7 5.4 1.6 1.9 1.2 3.2 2.9 3.7 4.3l5.1 10.4 6.3-2 0.7 1.2-12.3 14.8-19.9-2.8-0.1-1.4 6.2-2.1-4.8-10.8zm7.3-28.6c1.7 1.1 3 2.6 3.9 4.5l8.4 18.9-4.8 1.6 16 2.2 10.2-12.2-5.1 1.5-5.6-11.4v-0.1c-0.5-1.2-1.6-2.6-3.2-3.6-1.2-0.8-2.8-1.4-4.6-1.4zm-8.4 0.6c-1.1 0.5-2.2 1.4-3.1 2.6l-9.8 13 13.8 10.4 12.4-16.4-2.3-5.1c-0.6-1.3-1.5-2.4-2.6-3.3-1.1-0.9-2.4-1.5-3.8-1.7-1.6-0.3-3.1-0.2-4.6 0.5z"/><path fill-rule="evenodd" class="a" d="m35.9 33.3c0 0 3.5 0 3.5 0 1.2 0 3.3 0.2 3.3 3.2 0 1.1-0.1 3.6-3.3 3.6h-2v4.5h-1.5zm1.5 5.6h1.8c1.5 0 2-0.9 2-2.3 0-1.4-0.6-2-2-2h-1.8z"/><path fill-rule="evenodd" class="a" d="m46 38.1v-3.6h5v-1.2h-6.4v11.3h6.6v-1.2h-5.2v-4h4.5v-1.3z"/><path fill-rule="evenodd" class="a" d="m54.4 34.5v10.1h1.4v-10.1h2.8v-1.2h-7v1.2z"/></svg>